<svg width="179" height="37" viewBox="0 0 179 37" fill="none" xmlns="http://www.w3.org/2000/svg">
<g id="Frame 11304">
<g id="Group">
<g id="Group_2">
<g id="Clip path group">
<mask id="mask0_1161_318" style="mask-type:luminance" maskUnits="userSpaceOnUse" x="7" y="10" width="10" height="4">
<g id="clippath">
<path id="Vector" d="M7.19873 10.2473C7.19873 10.2473 9.13415 12.9549 11.2401 13.6518C11.2401 13.6518 15.2513 12.99 16.1588 11.6863C16.1588 11.6863 13.2156 12.1025 12.1877 10.7086C12.1877 10.7086 10.5782 10.3325 9.16424 10.1671C8.30182 10.0668 7.51462 10.0467 7.20374 10.2423" fill="white"/>
</g>
</mask>
<g mask="url(#mask0_1161_318)">
<g id="Group_3">
<path id="Vector_2" d="M7.23347 9.9505L6.86572 13.1484L15.8668 14.1835L16.2345 10.9856L7.23347 9.9505Z" fill="url(#paint0_linear_1161_318)"/>
</g>
</g>
</g>
<g id="Clip path group_2">
<mask id="mask1_1161_318" style="mask-type:luminance" maskUnits="userSpaceOnUse" x="1" y="15" width="20" height="6">
<g id="clippath-1">
<path id="Vector_3" d="M11.3653 15.9582C11.3653 15.9582 2.21968 15.8479 1.979 16.4997C1.979 16.4997 10.0065 20.7115 16.4596 20.5461C16.4596 20.5461 19.9443 17.4223 20.1299 16.7254C20.1299 16.7254 15.1158 18.1243 11.3603 15.9532" fill="white"/>
</g>
</mask>
<g mask="url(#mask1_1161_318)">
<g id="Group_4">
<path id="Vector_4" d="M2.19317 14.6716L1.60889 19.7524L19.5512 21.8157L20.1355 16.7349L2.19317 14.6716Z" fill="url(#paint1_linear_1161_318)"/>
</g>
</g>
</g>
<g id="Clip path group_3">
<mask id="mask2_1161_318" style="mask-type:luminance" maskUnits="userSpaceOnUse" x="0" y="19" width="12" height="3">
<g id="clippath-2">
<path id="Vector_5" d="M0.86084 19.4832C4.68656 21.7395 11.0394 21.218 11.0394 21.218C8.31171 20.13 6.09049 19.6486 4.42081 19.4531C2.09931 19.1873 0.86084 19.4832 0.86084 19.4832Z" fill="white"/>
</g>
</mask>
<g mask="url(#mask2_1161_318)">
<g id="Group_5">
<path id="Vector_6" d="M0.908396 19.0546L0.652344 21.2812L10.8937 22.459L11.1498 20.2324L0.908396 19.0546Z" fill="url(#paint2_linear_1161_318)"/>
</g>
</g>
</g>
<g id="Clip path group_4">
<mask id="mask3_1161_318" style="mask-type:luminance" maskUnits="userSpaceOnUse" x="9" y="22" width="11" height="6">
<g id="clippath-3">
<path id="Vector_7" d="M9.83594 24.3217C15.7274 26.2972 16.1185 27.2299 16.1185 27.2299C18.1342 27.3552 19.3576 25.0187 19.3576 25.0187C17.9537 23.8755 15.4015 22.7573 15.4015 22.7573L9.83594 24.3217Z" fill="white"/>
</g>
</mask>
<g mask="url(#mask3_1161_318)">
<g id="Group_6">
<path id="Vector_8" d="M10.0838 22.1478L9.58545 26.4814L19.0597 27.571L19.5581 23.2373L10.0838 22.1478Z" fill="url(#paint3_linear_1161_318)"/>
</g>
</g>
</g>
<g id="Clip path group_5">
<mask id="mask4_1161_318" style="mask-type:luminance" maskUnits="userSpaceOnUse" x="0" y="25" width="10" height="4">
<g id="clippath-4">
<path id="Vector_9" d="M0.605469 28.4683C1.53808 28.0572 9.67588 27.4154 9.67588 27.4154C8.01623 26.558 6.64238 26.1468 5.51422 26.0164C1.63836 25.5702 0.605469 28.4683 0.605469 28.4683Z" fill="white"/>
</g>
</mask>
<g mask="url(#mask4_1161_318)">
<g id="Group_7">
<path id="Vector_10" d="M0.947528 25.4939L0.60498 28.4727L9.43668 29.4883L9.77923 26.5095L0.947528 25.4939Z" fill="url(#paint4_linear_1161_318)"/>
</g>
</g>
</g>
<g id="Clip path group_6">
<mask id="mask5_1161_318" style="mask-type:luminance" maskUnits="userSpaceOnUse" x="6" y="29" width="9" height="5">
<g id="clippath-5">
<path id="Vector_11" d="M6.15088 29.7115C6.15088 29.7115 11.0195 31.3712 11.9672 33.6425C11.9672 33.6425 14.6848 33.1111 14.8853 32.3439C14.8853 32.3439 13.5767 29.9773 11.9571 29.0547C11.9571 29.0547 6.26119 29.1349 6.15589 29.7065" fill="white"/>
</g>
</mask>
<g mask="url(#mask5_1161_318)">
<g id="Group_8">
<path id="Vector_12" d="M6.30186 28.4126L5.78174 32.9355L14.6981 33.9609L15.2182 29.438L6.30186 28.4126Z" fill="url(#paint5_linear_1161_318)"/>
</g>
</g>
</g>
<g id="Clip path group_7">
<mask id="mask6_1161_318" style="mask-type:luminance" maskUnits="userSpaceOnUse" x="3" y="32" width="7" height="3">
<g id="clippath-6">
<path id="Vector_13" d="M6.20073 32.4442C3.75388 32.8554 3.56836 34.8409 3.56836 34.8409C5.24806 34.149 9.68048 33.7529 9.68048 33.7529C9.68048 33.7529 8.11109 32.5997 6.76231 32.4442C6.56676 32.4242 6.37623 32.4192 6.19572 32.4442" fill="white"/>
</g>
</mask>
<g mask="url(#mask6_1161_318)">
<g id="Group_9">
<path id="Vector_14" d="M3.83734 32.1111L3.52344 34.8408L9.47599 35.5253L9.7899 32.7956L3.83734 32.1111Z" fill="url(#paint6_linear_1161_318)"/>
</g>
</g>
</g>
<g id="Clip path group_8">
<mask id="mask7_1161_318" style="mask-type:luminance" maskUnits="userSpaceOnUse" x="7" y="9" width="8" height="3">
<g id="clippath-7">
<path id="Vector_15" d="M7.19886 10.2469C10.6235 13.3556 14.5645 9.58006 14.5645 9.58006C14.043 9.39955 13.5166 9.28924 12.9901 9.22907C9.99168 8.8831 7.19385 10.2469 7.19385 10.2469" fill="white"/>
</g>
</mask>
<g mask="url(#mask7_1161_318)">
<g id="Group_10">
<path id="Vector_16" d="M7.38614 8.58616L6.88721 12.9248L14.0851 13.7525L14.584 9.41389L7.38614 8.58616Z" fill="url(#paint7_linear_1161_318)"/>
</g>
</g>
</g>
<g id="Clip path group_9">
<mask id="mask8_1161_318" style="mask-type:luminance" maskUnits="userSpaceOnUse" x="1" y="10" width="18" height="8">
<g id="clippath-8">
<path id="Vector_17" d="M4.29549 12.5283C4.29549 12.5283 2.06424 15.5769 1.979 16.4995C1.979 16.4995 12.9648 19.1018 18.746 13.5412C18.746 13.5412 18.3198 12.1924 16.7454 10.8486C16.7454 10.8486 10.7536 15.7774 4.29549 12.5283Z" fill="white"/>
</g>
</mask>
<g mask="url(#mask8_1161_318)">
<g id="Group_11">
<path id="Vector_18" d="M2.79841 9.24754L1.81201 17.8252L18.0508 19.6926L19.0372 11.1149L2.79841 9.24754Z" fill="url(#paint8_linear_1161_318)"/>
</g>
</g>
</g>
<g id="Clip path group_10">
<mask id="mask9_1161_318" style="mask-type:luminance" maskUnits="userSpaceOnUse" x="0" y="16" width="21" height="9">
<g id="clippath-9">
<path id="Vector_19" d="M0.860956 19.4832C0.860956 19.4832 0.244229 21.1629 0.269299 23.2437C0.269299 23.2437 11.5359 28.4633 20.521 19.9946C20.521 19.9946 20.6564 17.9689 20.14 16.7305C20.14 16.7305 13.8925 24.3267 0.86597 19.4882" fill="white"/>
</g>
</mask>
<g mask="url(#mask9_1161_318)">
<g id="Group_12">
<path id="Vector_20" d="M1.00756 14.5283L-0.436523 27.0859L19.4385 29.3715L20.8826 16.8138L1.00756 14.5283Z" fill="url(#paint9_linear_1161_318)"/>
</g>
</g>
</g>
<g id="Clip path group_11">
<mask id="mask10_1161_318" style="mask-type:luminance" maskUnits="userSpaceOnUse" x="0" y="25" width="20" height="7">
<g id="clippath-10">
<path id="Vector_21" d="M10.9143 27.3501C3.83953 26.8587 0.956452 27.666 0.605469 28.4682C0.605469 28.4682 0.99155 30.7496 1.80383 31.8828C1.80383 31.8828 2.58602 29.5713 9.68089 30.2281C14.6699 30.544 17.1568 28.398 17.1568 28.398C17.1568 28.398 19.5736 25.7255 19.363 25.0186C19.363 25.0186 17.9992 27.8465 10.9244 27.3551" fill="white"/>
</g>
</mask>
<g mask="url(#mask10_1161_318)">
<g id="Group_13">
<path id="Vector_22" d="M1.24157 22.9386L0.233398 31.7056L18.634 33.8216L19.6422 25.0546L1.24157 22.9386Z" fill="url(#paint10_linear_1161_318)"/>
</g>
</g>
</g>
<g id="Clip path group_12">
<mask id="mask11_1161_318" style="mask-type:luminance" maskUnits="userSpaceOnUse" x="3" y="32" width="12" height="5">
<g id="clippath-11">
<path id="Vector_23" d="M9.74566 33.2819C7.15842 32.9209 4.89708 33.1465 3.56836 34.8412C3.56836 34.8412 4.98733 36.5961 5.95003 36.9622C5.95003 36.9622 7.08822 35.7939 9.09384 36.1549C11.0944 36.5159 12.4934 36.4808 13.2906 35.7287C14.0377 35.0268 14.5692 34.1894 14.88 32.3442C14.88 32.3442 12.3329 33.6379 9.74566 33.2769" fill="white"/>
</g>
</mask>
<g mask="url(#mask11_1161_318)">
<g id="Group_14">
<path id="Vector_24" d="M3.99735 31.1004L3.35693 36.6694L14.2359 37.9205L14.8763 32.3515L3.99735 31.1004Z" fill="url(#paint11_linear_1161_318)"/>
</g>
</g>
</g>
<g id="Clip path group_13">
<mask id="mask12_1161_318" style="mask-type:luminance" maskUnits="userSpaceOnUse" x="9" y="2" width="3" height="8">
<g id="clippath-12">
<path id="Vector_25" d="M9.97665 2.53541C9.97665 2.53541 9.80116 4.21512 9.84629 4.66137C9.89141 5.10261 10.5533 6.39623 10.3978 7.75504C10.2424 9.11384 9.90645 9.33447 9.90645 9.33447C10.6285 9.67542 11.6263 9.15897 11.6263 9.15897C11.6263 9.15897 11.7867 7.60462 11.6564 7.06811C11.3756 6.4213 11.0396 4.7065 10.9243 4.21512C10.809 3.72375 10.9644 2.63068 10.9644 2.63068C10.804 2.48026 10.6435 2.4201 10.4981 2.40004C10.2023 2.36494 9.97164 2.52539 9.97164 2.52539" fill="white"/>
</g>
</mask>
<g mask="url(#mask12_1161_318)">
<g id="Group_15">
<path id="Vector_26" d="M12.3505 2.20017L8.71289 2.43604L9.19955 9.94134L12.8371 9.70547L12.3505 2.20017Z" fill="url(#paint12_linear_1161_318)"/>
</g>
</g>
</g>
<g id="Clip path group_14">
<mask id="mask13_1161_318" style="mask-type:luminance" maskUnits="userSpaceOnUse" x="11" y="0" width="5" height="7">
<g id="clippath-13">
<path id="Vector_27" d="M11.7215 6.98801C16.5099 4.50104 15.467 0.188965 15.467 0.188965C10.819 2.13943 11.7215 6.98801 11.7215 6.98801Z" fill="white"/>
</g>
</mask>
<g mask="url(#mask13_1161_318)">
<g id="Group_16">
<path id="Vector_28" d="M16.671 -1.32681L9.04443 0.0605469L10.5825 8.51586L18.2091 7.12851L16.671 -1.32681Z" fill="url(#paint13_linear_1161_318)"/>
</g>
</g>
</g>
<g id="Clip path group_15">
<mask id="mask14_1161_318" style="mask-type:luminance" maskUnits="userSpaceOnUse" x="6" y="2" width="5" height="5">
<g id="clippath-14">
<path id="Vector_29" d="M6.02539 2.68604C7.08837 6.23097 10.1269 6.08055 10.1269 6.08055C9.54525 3.32784 7.18865 2.80637 6.33626 2.71111C6.14071 2.69105 6.02539 2.69105 6.02539 2.69105" fill="white"/>
</g>
</mask>
<g mask="url(#mask14_1161_318)">
<g id="Group_17">
<path id="Vector_30" d="M6.02535 2.67224L5.63525 6.06445L10.0636 6.57369L10.4536 3.18148L6.02535 2.67224Z" fill="url(#paint14_linear_1161_318)"/>
</g>
</g>
</g>
</g>
<g id="Group_18">
<path id="Vector_31" d="M22.4513 25.5103C22.4513 21.8801 25.555 18.9419 29.3205 18.9419C31.988 18.9419 34.2393 20.2506 35.5229 22.6172L32.4192 23.8356C31.6621 22.5721 30.559 21.9503 29.3155 21.9503C27.3149 21.9503 25.8709 23.4646 25.8709 25.5103C25.8709 27.556 27.34 29.0703 29.3406 29.0703C30.5791 29.0703 31.7323 28.5438 32.5346 27.2301L35.4527 28.3783C34.2343 30.8603 32.2337 32.0988 29.3406 32.0988C25.5751 32.0988 22.4463 29.1355 22.4463 25.5053L22.4513 25.5103Z" fill="white"/>
<path id="Vector_32" d="M46.4837 30.5192C45.9572 31.2312 44.438 32.0585 42.6479 32.0585C38.6518 32.0585 36.3052 29.0952 36.3052 25.4651C36.3052 21.8349 38.6467 18.8716 42.6479 18.8716C44.4881 18.8716 45.8419 19.6086 46.4837 20.456V19.1474H49.8832V31.7828H46.4837V30.5192ZM43.1544 21.88C40.9733 21.88 39.6846 23.3943 39.6846 25.4651C39.6846 27.5359 41.0384 29.025 43.1544 29.025C45.2703 29.025 46.6241 27.6712 46.6241 25.4651C46.6241 23.3742 45.2903 21.88 43.1544 21.88Z" fill="white"/>
<path id="Vector_33" d="M55.5589 26.1973V31.7779H52.1343V19.1425H55.5589V20.8172C56.8475 19.1175 58.9835 18.8868 59.876 18.9119V22.2663C59.0486 22.1961 55.5589 22.3565 55.5589 26.1973Z" fill="white"/>
<path id="Vector_34" d="M60.2472 25.5103C60.2472 20.3157 64.7498 18.9419 67.1164 18.9419C70.3555 18.9419 73.5946 21.1481 73.7099 25.2145C73.7099 26.1772 73.6397 26.7989 73.6397 26.7989H63.6668C64.0779 28.8647 66.4245 29.0953 67.1114 29.0953C69.0168 29.0953 69.9594 28.0624 70.3505 27.6262L73.018 29.1655C72.5116 29.8525 70.8118 32.1088 67.1114 32.1088C64.6546 32.1088 60.2422 30.7048 60.2422 25.5153L60.2472 25.5103ZM63.762 24.3621H70.0797C69.9444 23.2139 68.8162 21.9503 67.0914 21.9503C65.1158 21.9503 63.8974 23.0785 63.762 24.3621Z" fill="white"/>
<path id="Vector_35" d="M74.7877 25.5103C74.7877 20.3157 79.2903 18.9419 81.657 18.9419C84.896 18.9419 88.1351 21.1481 88.2504 25.2145C88.2504 26.1772 88.1802 26.7989 88.1802 26.7989H78.2073C78.6185 28.8647 80.965 29.0953 81.652 29.0953C83.5573 29.0953 84.4999 28.0624 84.891 27.6262L87.5585 29.1655C87.0521 29.8525 85.3523 32.1088 81.652 32.1088C79.1951 32.1088 74.7827 30.7048 74.7827 25.5153L74.7877 25.5103ZM78.3026 24.3621H84.6203C84.4849 23.2139 83.3567 21.9503 81.6319 21.9503C79.6564 21.9503 78.4379 23.0785 78.3026 24.3621Z" fill="white"/>
<path id="Vector_36" d="M93.305 26.1973V31.7779H89.8804V19.1425H93.305V20.8172C94.5936 19.1175 96.7296 18.8868 97.6221 18.9119V22.2663C96.7947 22.1961 93.305 22.3565 93.305 26.1973Z" fill="white"/>
<path id="Vector_37" d="M118.741 24.3119V31.7778H115.272V24.3119C115.272 22.3614 114.143 21.7597 112.815 21.7597C111.872 21.7597 110.423 22.3363 110.403 24.7481V31.7778H106.933V24.3119C106.933 22.3614 105.785 21.7597 104.496 21.7597C103.438 21.7597 102.06 22.3363 102.06 25.0891L102.034 31.7728H98.6099V19.1374H102.034V20.2856C102.907 19.5034 104.331 18.9067 105.364 18.9067C107.294 18.9067 108.558 19.5485 109.43 20.6316C110.373 19.5736 111.797 18.9067 113.497 18.9067C117.127 18.9067 118.736 21.0227 118.736 24.3069L118.741 24.3119Z" fill="white"/>
<path id="Vector_38" d="M130.8 30.5192C130.273 31.2312 128.754 32.0585 126.964 32.0585C122.968 32.0585 120.621 29.0952 120.621 25.4651C120.621 21.8349 122.963 18.8716 126.964 18.8716C128.804 18.8716 130.158 19.6086 130.8 20.456V19.1474H134.199V31.7828H130.8V30.5192ZM127.47 21.88C125.289 21.88 124.001 23.3943 124.001 25.4651C124.001 27.5359 125.354 29.025 127.47 29.025C129.586 29.025 130.94 27.6712 130.94 25.4651C130.94 23.3742 129.606 21.88 127.47 21.88Z" fill="white"/>
<path id="Vector_39" d="M148.284 24.3118V31.7777H144.769V24.3118C144.769 22.3613 143.666 21.7596 142.332 21.7596C141.389 21.7596 139.85 22.3362 139.92 25.0889V31.7727H136.496V19.1373H139.92V20.2654C140.773 19.413 142.172 18.9116 143.3 18.9116C146.955 18.9116 148.284 21.0276 148.284 24.3118Z" fill="white"/>
<path id="Vector_40" d="M157.154 36.5359C154.787 36.5359 152.721 35.8941 151.112 34.6305L152.786 32.1937C153.774 32.9759 155.313 33.6428 157.083 33.5976C159.816 33.5274 160.137 31.8277 160.137 30.6544V30.4488C159.239 31.1859 158.071 31.577 156.597 31.577C152.461 31.577 149.958 28.729 149.958 25.2593C149.958 21.7896 152.461 18.9165 156.597 18.9165C158.066 18.9165 159.239 19.3076 160.137 20.0447V19.1472H163.537V30.6594C163.537 34.2896 161.195 36.5409 157.149 36.5409L157.154 36.5359ZM160.277 25.2543C160.277 23.3038 158.763 21.8297 156.808 21.8297C154.692 21.8297 153.338 23.3239 153.338 25.2543C153.338 27.1847 154.627 28.6789 156.808 28.6789C158.758 28.6789 160.277 27.1847 160.277 25.2543Z" fill="white"/>
<path id="Vector_41" d="M165.261 25.4849C165.261 21.8798 168.34 18.9165 172.105 18.9165C175.871 18.9165 179 21.8798 179 25.4849C179 29.09 175.876 32.0784 172.105 32.0784C168.335 32.0784 165.261 29.1351 165.261 25.4849ZM168.641 25.4849C168.641 27.5758 170.135 29.09 172.11 29.09C174.086 29.09 175.58 27.5256 175.58 25.4849C175.58 23.4442 174.066 21.9249 172.11 21.9249C170.155 21.9249 168.641 23.4893 168.641 25.4849Z" fill="white"/>
</g>
</g>
</g>
<defs>
<linearGradient id="paint0_linear_1161_318" x1="7.55854" y1="12.3378" x2="16.5701" y2="13.3741" gradientUnits="userSpaceOnUse">
<stop stop-color="#FF7F02"/>
<stop offset="1" stop-color="#FF7702"/>
</linearGradient>
<linearGradient id="paint1_linear_1161_318" x1="1.39928" y1="16.4243" x2="19.2136" y2="18.4729" gradientUnits="userSpaceOnUse">
<stop stop-color="#FF7F02"/>
<stop offset="1" stop-color="#FF7702"/>
</linearGradient>
<linearGradient id="paint2_linear_1161_318" x1="0.287493" y1="19.3497" x2="10.4542" y2="20.5188" gradientUnits="userSpaceOnUse">
<stop stop-color="#FF7F02"/>
<stop offset="1" stop-color="#FF7702"/>
</linearGradient>
<linearGradient id="paint3_linear_1161_318" x1="10.1986" y1="24.9043" x2="19.68" y2="25.9946" gradientUnits="userSpaceOnUse">
<stop stop-color="#FF7F02"/>
<stop offset="1" stop-color="#FF7702"/>
</linearGradient>
<linearGradient id="paint4_linear_1161_318" x1="0.103115" y1="25.9735" x2="8.9385" y2="26.9895" gradientUnits="userSpaceOnUse">
<stop stop-color="#FF7F02"/>
<stop offset="1" stop-color="#FF7702"/>
</linearGradient>
<linearGradient id="paint5_linear_1161_318" x1="6.56628" y1="31.4993" x2="15.493" y2="32.5259" gradientUnits="userSpaceOnUse">
<stop stop-color="#FF7F02"/>
<stop offset="1" stop-color="#FF7702"/>
</linearGradient>
<linearGradient id="paint6_linear_1161_318" x1="3.40869" y1="32.9552" x2="9.3207" y2="33.635" gradientUnits="userSpaceOnUse">
<stop stop-color="#FF7F02"/>
<stop offset="1" stop-color="#FF7702"/>
</linearGradient>
<linearGradient id="paint7_linear_1161_318" x1="6.62375" y1="9.96407" x2="13.8213" y2="10.7918" gradientUnits="userSpaceOnUse">
<stop stop-color="#FFF80A"/>
<stop offset="1" stop-color="#FF7702"/>
</linearGradient>
<linearGradient id="paint8_linear_1161_318" x1="3.00226" y1="14.5428" x2="19.2309" y2="16.409" gradientUnits="userSpaceOnUse">
<stop stop-color="#FFF80A"/>
<stop offset="1" stop-color="#FF7702"/>
</linearGradient>
<linearGradient id="paint9_linear_1161_318" x1="0.386467" y1="20.7307" x2="20.0997" y2="22.9977" gradientUnits="userSpaceOnUse">
<stop stop-color="#FFF80A"/>
<stop offset="1" stop-color="#FF7702"/>
</linearGradient>
<linearGradient id="paint10_linear_1161_318" x1="0.922023" y1="27.5791" x2="19.0757" y2="29.6667" gradientUnits="userSpaceOnUse">
<stop stop-color="#FFF80A"/>
<stop offset="1" stop-color="#FF7702"/>
</linearGradient>
<linearGradient id="paint11_linear_1161_318" x1="4.20293" y1="34.6676" x2="15.0938" y2="35.92" gradientUnits="userSpaceOnUse">
<stop stop-color="#FFF80A"/>
<stop offset="1" stop-color="#FF7702"/>
</linearGradient>
<linearGradient id="paint12_linear_1161_318" x1="11.4345" y1="8.71675" x2="11.0443" y2="2.69959" gradientUnits="userSpaceOnUse">
<stop stop-color="#BD6E29"/>
<stop offset="1" stop-color="#603815"/>
</linearGradient>
<linearGradient id="paint13_linear_1161_318" x1="10.732" y1="3.63717" x2="15.5594" y2="2.75901" gradientUnits="userSpaceOnUse">
<stop stop-color="#A9F80A"/>
<stop offset="1" stop-color="#079445"/>
</linearGradient>
<linearGradient id="paint14_linear_1161_318" x1="5.38525" y1="3.54633" x2="9.78217" y2="4.05196" gradientUnits="userSpaceOnUse">
<stop stop-color="#A9F80A"/>
<stop offset="1" stop-color="#079445"/>
</linearGradient>
</defs>
</svg>
