<svg width="18" height="21" viewBox="0 0 18 21" fill="none" xmlns="http://www.w3.org/2000/svg">
<path d="M17.9081 8.10841C17.7427 7.60749 17.2925 7.29851 16.7229 7.28446C16.3829 7.2751 16.3829 7.2751 16.3829 6.92398C16.3829 6.32943 16.3829 5.73487 16.3829 5.14032C16.3829 4.87815 16.3002 4.6628 16.1302 4.46618C15.6111 3.87163 15.1012 3.26771 14.5867 2.67315C13.8838 1.86325 13.1901 1.04398 12.4872 0.229395C12.3953 0.12172 12.2897 0.0374522 12.1518 0C8.85335 0.00468153 5.55945 0.00468153 2.26555 0.00468153C1.83831 0.145127 1.64996 0.388567 1.6178 0.852039C1.6132 0.945669 1.6132 1.0393 1.6132 1.13293C1.6132 3.08513 1.6132 5.03733 1.6132 6.98953C1.6132 7.27978 1.60861 7.28446 1.33297 7.28914C0.506051 7.30319 0.00989869 7.79475 0.00530469 8.64679C-0.00388331 10.5522 0.000710694 12.4576 0.00530469 14.3629C0.00530469 14.597 0.0420567 14.8311 0.152313 15.0418C0.404983 15.5333 0.827631 15.7065 1.34216 15.7159C1.6132 15.7206 1.6178 15.7253 1.62239 15.9968C1.62239 17.1344 1.62239 18.272 1.62239 19.4049C1.62239 19.4939 1.62239 19.5782 1.62239 19.6671C1.63617 20.1727 1.95775 20.58 2.54579 20.5753C5.55945 20.5566 8.56852 20.566 11.5822 20.566C12.9007 20.566 14.2191 20.566 15.5376 20.566C15.974 20.566 16.2681 20.3178 16.3553 19.8825C16.3829 19.7514 16.3829 19.6156 16.3829 19.4845C16.3829 18.3188 16.3829 17.1578 16.3829 15.9921C16.3829 15.7206 16.3921 15.7159 16.6631 15.7112C16.7091 15.7112 16.755 15.7112 16.801 15.7065C17.3293 15.655 17.7244 15.4116 17.9127 14.8873C17.977 14.7047 18 14.5081 18 14.3161C18 12.4388 18 10.5569 18 8.67956C17.9954 8.48762 17.9678 8.29567 17.9081 8.10841ZM2.67442 0.805223C5.5962 0.809905 8.51339 0.809905 11.4352 0.805223C11.596 0.805223 11.6419 0.837994 11.6373 1.01121C11.6281 2.26118 11.6327 3.51115 11.6327 4.76112C11.6327 5.21991 11.7522 5.33695 12.207 5.33695C13.2498 5.33695 14.2926 5.34163 15.3355 5.33226C15.4779 5.33226 15.5238 5.36035 15.5238 5.51484C15.5146 6.06258 15.5101 6.61032 15.5238 7.15806C15.5284 7.3266 15.4687 7.35 15.3263 7.35C13.2131 7.34532 11.0998 7.34532 8.98657 7.34532C6.88252 7.34532 4.77388 7.34532 2.66982 7.35C2.50903 7.35 2.46769 7.30787 2.46769 7.14402C2.47228 5.09819 2.47228 3.05236 2.46769 1.00653C2.46769 0.837994 2.51363 0.805223 2.67442 0.805223ZM11.5776 12.3265C11.9773 12.6355 12.4413 12.6355 12.9098 12.5325C13.2314 12.4622 13.2268 12.4529 13.2912 12.7946C13.2957 12.8227 13.3003 12.8461 13.3049 12.8742C13.383 13.2441 13.383 13.2441 13.0201 13.3236C12.942 13.3424 12.8639 13.3564 12.7858 13.3611C12.6434 13.3751 12.4964 13.3845 12.3172 13.3985C11.5041 13.3845 10.7369 13.1738 10.3234 12.3358C9.75377 11.1889 10.0754 9.37711 11.8073 9.01663C12.2897 8.91363 12.772 8.93704 13.2452 9.07749C13.3692 9.11494 13.4382 9.16176 13.3784 9.31625C13.3233 9.45669 13.2912 9.61118 13.2682 9.76099C13.2452 9.90612 13.1855 9.92016 13.0615 9.87335C12.6526 9.72354 12.2391 9.71418 11.8349 9.87803C11.4306 10.0419 11.1963 10.3602 11.1182 10.7862C11.0171 11.3714 11.0722 11.9285 11.5776 12.3265ZM9.63433 11.142C9.62514 11.8864 9.43219 12.5559 8.812 13.0193C7.94833 13.6654 6.61607 13.4828 6.00507 12.6448C5.30219 11.6757 5.49054 10.0653 6.39096 9.36306C7.30976 8.64679 8.7385 8.89023 9.30815 9.8593C9.53785 10.2526 9.63892 10.6833 9.63433 11.142ZM1.51673 13.3283C1.37891 13.3143 1.40188 13.23 1.40188 13.1457C1.40188 12.4903 1.40188 11.8349 1.40188 11.1842C1.40188 10.5709 1.41107 9.95293 1.39729 9.33965C1.39269 9.14771 1.42485 9.06812 1.63617 9.0494C2.27015 8.99322 2.90412 8.96045 3.53809 9.07281C4.48445 9.23666 5.10924 9.95762 5.1368 10.9361C5.15518 11.6196 5.02195 12.2516 4.51661 12.7478C4.15369 13.1036 3.69429 13.2581 3.20732 13.3236C2.64226 13.4032 2.08179 13.3798 1.51673 13.3283ZM15.3171 19.5313C13.2085 19.5267 11.1044 19.5267 8.99576 19.5267C6.8963 19.5267 4.79685 19.522 2.69739 19.5313C2.49985 19.5313 2.46309 19.4752 2.46309 19.2879C2.47228 18.1362 2.47228 16.9893 2.46309 15.8376C2.46309 15.6925 2.49066 15.6457 2.64226 15.6457C6.87333 15.6504 11.109 15.6504 15.3401 15.6457C15.4917 15.6457 15.5238 15.6878 15.5238 15.8376C15.5192 17.0033 15.5146 18.1643 15.5238 19.33C15.5284 19.4986 15.4733 19.5313 15.3171 19.5313ZM16.3094 13.3283C16.2083 13.3283 16.2037 13.2394 16.1716 13.1785C15.9465 12.7197 15.7214 12.2609 15.4871 11.774C15.2987 12.2001 15.1012 12.5933 14.9496 13.0006C14.8531 13.2628 14.7153 13.3564 14.4488 13.3283C14.2145 13.3002 13.9757 13.3236 13.7092 13.3236C14.0859 12.6542 14.4351 12.0081 14.8072 11.3761C14.9128 11.1982 14.899 11.0765 14.8026 10.908C14.4488 10.2947 14.1135 9.67204 13.7551 9.02131C14.1181 9.02131 14.4534 9.02131 14.7934 9.02131C14.8853 9.02131 14.8899 9.1009 14.9128 9.15707C15.1196 9.60182 15.3263 10.0466 15.5468 10.5241C15.7352 10.0606 15.9189 9.62523 16.1119 9.19921C16.1762 9.05876 16.2451 9.01663 16.3875 9.02131C16.6769 9.03535 16.9618 9.02599 17.2558 9.02599C17.2604 9.11494 17.2052 9.16644 17.1731 9.2273C16.8423 9.81249 16.5161 10.3977 16.1808 10.9735C16.1165 11.0859 16.1211 11.1655 16.1854 11.2778C16.5759 11.9473 16.9526 12.6214 17.3568 13.3236C16.9801 13.3283 16.6448 13.3283 16.3094 13.3283Z" fill="#F08438"/>
<path d="M4.00152 10.4349C3.91423 10.2429 3.79019 10.0791 3.61562 9.96673C3.26188 9.72797 2.86221 9.72797 2.45793 9.76075C2.34768 9.77011 2.36605 9.85438 2.36605 9.9246C2.36605 10.3459 2.36605 10.7673 2.36605 11.1886C2.36605 11.61 2.36605 12.0313 2.36605 12.4526C2.36605 12.5182 2.3339 12.6071 2.45793 12.6118C2.85302 12.6259 3.23891 12.6071 3.58806 12.3731C4.17609 11.9798 4.23122 10.9452 4.00152 10.4349Z" fill="#F08438"/>
<path d="M7.59886 9.72797C7.25431 9.73265 6.99245 9.90586 6.81788 10.2148C6.64331 10.5191 6.59277 10.8515 6.59277 11.198C6.59277 11.535 6.6525 11.8627 6.82707 12.1577C7.19918 12.7897 8.06285 12.7897 8.40281 12.1389C8.72899 11.5069 8.72899 10.8562 8.40281 10.2195C8.23283 9.8965 7.9526 9.72797 7.59886 9.72797Z" fill="#F08438"/>

</svg>
