<svg width="26" height="23" viewBox="0 0 26 23" fill="none" xmlns="http://www.w3.org/2000/svg">
<g clip-path="url(#clip0_23_39)">
<path d="M25.8375 1.42826C25.3652 0.520298 24.6136 0.0153082 23.598 0.0102073C19.7996 -0.00509539 16.0011 5.51365e-06 12.2027 0.0102073C11.7253 0.0102073 11.2632 0.132629 10.857 0.408078C10.1054 0.918169 9.72964 1.6272 9.72964 2.54026C9.72964 4.82546 9.72964 7.11067 9.72964 9.39588C9.72964 9.70703 9.70933 9.71723 9.44019 9.57951C8.9019 9.30916 8.36362 9.03881 7.83042 8.76847C7.59683 8.65114 7.59683 8.65115 7.75933 8.4216C8.67339 7.14128 8.78511 5.79464 8.07417 4.39189C7.43433 3.14216 6.048 2.39743 4.6769 2.46374C3.72729 2.50965 2.89956 2.88202 2.21401 3.58084C0.847998 4.97849 0.787061 7.19228 2.10229 8.64094C2.33589 8.89599 2.33589 8.89599 2.03628 9.10002C1.3812 9.5489 0.873389 10.1304 0.502686 10.8343C0.213232 11.3801 0.035498 11.9565 -0.00512695 12.5737C-0.00512695 13.7112 -0.00512695 14.8538 -0.00512695 15.9914C0.106592 16.7973 0.522998 17.3941 1.24409 17.7614C1.47261 17.8787 1.55894 18.0215 1.55386 18.2766C1.5437 19.4906 1.54878 20.7097 1.54878 21.9237C1.54878 22.6735 1.8687 22.9949 2.62026 23C3.40737 23.0051 4.19448 23 4.98159 23C5.70269 23 6.4187 23.0051 7.1398 23C7.72378 22.9949 8.02847 22.7246 8.11987 22.143C8.14526 22.0002 8.14019 21.8574 8.14019 21.7095C8.14019 19.1743 8.14019 16.6443 8.14019 14.1091C8.14019 14.0326 8.14019 13.9561 8.14019 13.8796C8.14019 13.7419 8.21128 13.7214 8.323 13.7776C8.37378 13.8031 8.42964 13.8286 8.48042 13.8541C9.09995 14.1652 9.72456 14.4713 10.3441 14.7926C11.2683 15.267 12.5378 15.114 13.1726 14.1448C13.2539 14.0173 13.3707 13.9714 13.5179 13.9714C14.2289 13.9714 14.9398 13.9765 15.6507 13.9663C15.8437 13.9663 15.864 14.0377 15.8031 14.2009C15.1074 16.0985 14.4269 18.0011 13.7363 19.9037C13.5027 20.5516 13.2589 21.1943 13.0355 21.8472C12.8527 22.3828 13.1777 22.9031 13.7312 22.9796C14.107 23.0357 14.4625 22.7756 14.6351 22.3063C15.3156 20.4495 15.9859 18.5826 16.6562 16.7259C16.9558 15.8944 17.2605 15.063 17.5601 14.2315C17.616 14.0734 17.6972 13.9663 17.8851 13.9714C18.0527 13.9714 18.1238 14.0581 18.1746 14.2009C18.9667 16.3688 19.7589 18.5418 20.5562 20.7097C20.7796 21.3218 20.9675 21.9543 21.2621 22.5409C21.455 22.9337 21.9019 23.0816 22.3031 22.9133C22.6687 22.7552 22.8769 22.3114 22.7652 21.9186C22.7347 21.8064 22.6941 21.6942 22.6535 21.5819C21.7597 19.1437 20.871 16.7004 19.9722 14.257C19.8707 13.9816 19.8757 13.9765 20.1652 13.9765C21.2824 13.9765 22.3996 13.9765 23.5167 13.9765C23.9281 13.9765 24.3242 13.9051 24.6949 13.7061C25.4566 13.3032 25.9339 12.7013 25.9999 11.8137C25.9999 8.58483 25.9999 5.35086 25.9999 2.12198C25.939 1.88734 25.9492 1.6476 25.8375 1.42826ZM4.76831 4.07053C5.84487 4.01442 6.8605 4.85097 6.92144 6.05478C7.01284 7.09027 6.15464 8.12065 5.14409 8.24307C3.89487 8.3961 2.81323 7.49324 2.75737 6.25372C2.70659 5.20293 3.46323 4.13684 4.76831 4.07053ZM11.6441 13.4154C11.446 13.5072 11.2531 13.4511 11.0601 13.3542C9.95815 12.7982 8.8562 12.2473 7.75425 11.6964C7.57651 11.6097 7.39878 11.5332 7.20073 11.5587C6.86558 11.5944 6.5812 11.8596 6.54565 12.2014C6.52026 12.4717 6.52534 12.7421 6.52534 13.0175C6.52534 14.2672 6.52534 15.517 6.52534 16.7667C6.52534 18.2204 6.52026 19.6742 6.53042 21.128C6.53042 21.332 6.48979 21.4034 6.27144 21.3983C5.30659 21.3881 4.34175 21.3881 3.3769 21.3983C3.17886 21.3983 3.14331 21.3422 3.14331 21.1586C3.15347 19.8986 3.14839 18.6438 3.14839 17.3839C3.14839 16.7922 2.91479 16.5269 2.33589 16.4606C1.83823 16.4045 1.52339 16.0679 1.52339 15.5578C1.51831 14.7314 1.50815 13.9102 1.52339 13.0838C1.55386 11.2934 2.94526 9.89577 4.72261 9.80905C5.71792 9.75804 6.63706 9.93147 7.52573 10.411C8.87144 11.1353 10.2527 11.7882 11.6238 12.4717C11.8269 12.5737 11.9843 12.7064 11.9792 12.9512C11.9691 13.1654 11.8371 13.3236 11.6441 13.4154ZM24.4765 11.3954C24.4765 12.0024 24.1312 12.3697 23.5523 12.3697C20.2261 12.3748 16.9 12.3697 13.5738 12.3697C13.5332 12.3697 13.4925 12.3646 13.4519 12.3595C13.4468 12.2575 13.5078 12.1912 13.5433 12.1147C14.1222 10.9466 14.7011 9.77845 15.2851 8.61544C15.4273 8.32469 15.4425 8.04414 15.2496 7.77379C15.0718 7.52384 14.823 7.42693 14.5183 7.46263C14.2339 7.49834 14.046 7.67177 13.9242 7.92172C13.4316 8.90619 12.939 9.89067 12.4566 10.8802C12.3652 11.069 12.2941 11.1149 12.1113 10.9976C11.9183 10.8751 11.7101 10.7782 11.5019 10.6915C11.3496 10.6303 11.3191 10.5385 11.3191 10.3804C11.3242 7.77889 11.3191 5.17743 11.3242 2.57596C11.3242 1.94345 11.6695 1.59659 12.2941 1.59659C16.0265 1.59659 19.7589 1.59659 23.4914 1.59659C24.1363 1.59659 24.4816 1.93835 24.4816 2.58617C24.4765 5.52939 24.4765 8.46241 24.4765 11.3954Z" fill="#4F4F4F"/>
<path d="M17.9004 4.87647C16.5395 4.87647 15.1735 4.88157 13.8125 4.87647C13.4215 4.87647 13.1321 4.61632 13.066 4.24396C13.0051 3.9124 13.2032 3.55023 13.5231 3.41761C13.6754 3.3564 13.8328 3.3513 13.9953 3.3513C15.8641 3.3513 17.7379 3.3513 19.6067 3.3513C20.3785 3.3513 21.1453 3.3462 21.9172 3.3513C22.491 3.3564 22.8516 3.82058 22.7043 4.33067C22.6078 4.66223 22.3336 4.87137 21.968 4.87647C21.3434 4.88157 20.7137 4.87647 20.0891 4.87647C19.3578 4.88157 18.6266 4.88157 17.9004 4.87647Z" fill="#4F4F4F"/>
<path d="M19.9316 6.2231C20.5918 6.2231 21.2519 6.2129 21.907 6.2231C22.491 6.2333 22.8464 6.68218 22.6992 7.19227C22.6129 7.49832 22.4046 7.67685 22.0898 7.73296C22.0796 7.73296 22.0746 7.73806 22.0644 7.73806C20.6425 7.76357 19.2257 7.77377 17.8039 7.73296C17.3164 7.71766 17.0218 7.22287 17.164 6.75359C17.2656 6.42714 17.555 6.2282 17.9714 6.2231C18.6316 6.218 19.2816 6.2231 19.9316 6.2231Z" fill="#4F4F4F"/>
<path d="M19.9317 9.09493C20.5817 9.09493 21.2317 9.09493 21.8868 9.09493C22.3996 9.09493 22.745 9.41119 22.7399 9.86006C22.7348 10.2987 22.3895 10.6201 21.8969 10.6201C20.5868 10.6252 19.2766 10.6252 17.9664 10.6201C17.5196 10.6201 17.2149 10.3651 17.1539 9.97228C17.0981 9.59482 17.3012 9.25816 17.6567 9.13064C17.7735 9.08983 17.8903 9.09493 18.0071 9.09493C18.6469 9.09493 19.2868 9.09493 19.9317 9.09493Z" fill="#4F4F4F"/>
</g>
<defs>
<clipPath id="clip0_23_39">
<rect width="26" height="23" fill="white"/>
</clipPath>
</defs>
</svg>
