<svg width="16" height="16" viewBox="0 0 16 16" fill="none" xmlns="http://www.w3.org/2000/svg">
<path d="M7.99996 6.45659C8.85099 6.45659 9.54338 7.14897 9.54338 8.00001C9.54338 8.85104 8.85099 9.54343 7.99996 9.54343C7.14893 9.54343 6.45654 8.85104 6.45654 8.00001C6.45654 7.14897 7.14893 6.45659 7.99996 6.45659ZM7.99996 8.93326C8.51459 8.93326 8.93321 8.51463 8.93321 8.00001C8.93321 7.48538 8.51459 7.06676 7.99996 7.06676C7.48534 7.06676 7.06671 7.48538 7.06671 8.00001C7.06671 8.51463 7.48534 8.93326 7.99996 8.93326Z" fill="#F08438" stroke="#F08438" stroke-width="0.5"/>
<path d="M14.6949 8.30508H13.486C13.3327 11.0924 11.0924 13.3327 8.30508 13.486V14.6949C8.30508 14.8634 8.16846 15 8 15C7.83154 15 7.69492 14.8634 7.69492 14.6949V13.1896C7.69492 13.0211 7.83154 12.8845 8 12.8845C10.6933 12.8845 12.8845 10.6933 12.8845 8C12.8845 5.30667 10.6933 3.1155 8 3.1155C5.30667 3.1155 3.1155 5.30667 3.1155 8C3.1155 9.87032 4.20628 11.6009 5.89436 12.4087C6.04634 12.4814 6.11061 12.6636 6.03785 12.8155C5.96514 12.9675 5.78285 13.0318 5.63097 12.959C4.70906 12.5179 3.92896 11.8294 3.37508 10.968C2.86101 10.1684 2.56676 9.25349 2.51454 8.30508H1.30508C1.13663 8.30508 1 8.16846 1 8C1 7.83154 1.13663 7.69492 1.30508 7.69492H2.51398C2.66728 4.90757 4.90757 2.66728 7.69492 2.51398V1.30508C7.69492 1.13663 7.83154 1 8 1C8.16846 1 8.30508 1.13663 8.30508 1.30508V2.51398C11.0924 2.66728 13.3327 4.90757 13.486 7.69492H14.6949C14.8634 7.69492 15 7.83154 15 8C15 8.16846 14.8634 8.30508 14.6949 8.30508Z" fill="#F08438" stroke="#F08438" stroke-width="0.5"/>
</svg>
