<svg width="14" height="10" viewBox="0 0 14 10" fill="none" xmlns="http://www.w3.org/2000/svg">
<path d="M13.9997 0.824795C13.9177 1.05758 13.74 1.21721 13.5656 1.38682C10.7048 4.167 7.84396 6.9505 4.98312 9.73734C4.76779 9.94685 4.52853 10.0566 4.22092 9.97345C4.09103 9.93687 3.98508 9.86371 3.88937 9.77059C2.67258 8.58336 1.45236 7.39946 0.235567 6.21555C-0.00710916 5.97944 -0.0652146 5.68679 0.0680861 5.41409C0.197969 5.15137 0.461152 5.00504 0.76877 5.02832C0.967012 5.04495 1.11398 5.14472 1.2507 5.27774C2.26926 6.26876 3.28781 7.25978 4.30295 8.2508C4.33713 8.28406 4.36789 8.32397 4.41574 8.38383C4.46359 8.32397 4.49435 8.28073 4.53195 8.24083C7.26974 5.58369 10.0041 2.92656 12.7351 0.266098C12.9709 0.0366333 13.2341 -0.069785 13.5622 0.0499356C13.8049 0.139726 13.9245 0.329284 14.0031 0.555423C13.9997 0.645214 13.9997 0.735004 13.9997 0.824795Z" fill="#343434"/>
</svg>
