<svg width="16" height="16" viewBox="0 0 16 16" fill="none" xmlns="http://www.w3.org/2000/svg">
<path d="M7.99967 9.33333C9.47034 9.33333 10.6663 8.13733 10.6663 6.66667C10.6663 5.196 9.47034 4 7.99967 4C6.52901 4 5.33301 5.196 5.33301 6.66667C5.33301 8.13733 6.52901 9.33333 7.99967 9.33333ZM7.99967 5.33333C8.73501 5.33333 9.33301 5.93133 9.33301 6.66667C9.33301 7.402 8.73501 8 7.99967 8C7.26434 8 6.66634 7.402 6.66634 6.66667C6.66634 5.93133 7.26434 5.33333 7.99967 5.33333Z" fill="black" stroke="white" stroke-width="0.5"/>
<path d="M7.61372 14.5433C7.72655 14.6239 7.86173 14.6672 8.00038 14.6672C8.13903 14.6672 8.27422 14.6239 8.38705 14.5433C8.58972 14.4 13.3531 10.9607 13.3337 6.66732C13.3337 3.72665 10.9411 1.33398 8.00038 1.33398C5.05972 1.33398 2.66705 3.72665 2.66705 6.66398C2.64772 10.9607 7.41105 14.4 7.61372 14.5433ZM8.00038 2.66732C10.2064 2.66732 12.0004 4.46132 12.0004 6.67065C12.0144 9.62932 9.07505 12.286 8.00038 13.1573C6.92638 12.2853 3.98638 9.62798 4.00038 6.66732C4.00038 4.46132 5.79438 2.66732 8.00038 2.66732Z" fill="black" stroke="white" stroke-width="0.5"/>
</svg>
