<svg width="18" height="18" viewBox="0 0 18 18" fill="none" xmlns="http://www.w3.org/2000/svg">
<path d="M0.511719 2.79742C0.511719 2.23654 0.734528 1.69863 1.13113 1.30203C1.52773 0.905426 2.06564 0.682617 2.62653 0.682617H15.3154C15.8762 0.682617 16.4142 0.905426 16.8108 1.30203C17.2074 1.69863 17.4302 2.23654 17.4302 2.79742V6.12401C17.1115 5.83868 16.7558 5.59754 16.3728 5.40709V2.79742C16.3728 2.51698 16.2614 2.24803 16.0631 2.04973C15.8648 1.85143 15.5958 1.74002 15.3154 1.74002H2.62653C2.34608 1.74002 2.07713 1.85143 1.87883 2.04973C1.68053 2.24803 1.56912 2.51698 1.56912 2.79742V11.2566C1.56912 11.5371 1.68053 11.806 1.87883 12.0043C2.07713 12.2026 2.34608 12.3141 2.62653 12.3141H10.3012C10.3815 12.4335 10.4672 12.5499 10.557 12.6619V13.3715H2.62653C2.06564 13.3715 1.52773 13.1486 1.13113 12.752C0.734528 12.3554 0.511719 11.8175 0.511719 11.2566V2.79742Z" fill="black" fill-opacity="0.69"/>
<path d="M17.9594 9.67108C17.9594 10.6798 17.5566 11.5934 16.902 12.2617V16.5442C16.902 16.6424 16.8747 16.7386 16.8231 16.8222C16.7715 16.9057 16.6976 16.9732 16.6098 17.0171C16.522 17.061 16.4236 17.0796 16.3259 17.0708C16.2281 17.0619 16.1347 17.0261 16.0561 16.9672L14.5757 15.8569C14.4842 15.7882 14.3729 15.7511 14.2585 15.7511C14.1441 15.7511 14.0328 15.7882 13.9413 15.8569L12.4609 16.9672C12.3824 17.0261 12.289 17.0619 12.1912 17.0708C12.0934 17.0796 11.9951 17.061 11.9073 17.0171C11.8195 16.9732 11.7456 16.9057 11.694 16.8222C11.6424 16.7386 11.615 16.6424 11.615 16.5442V12.2617C11.1902 11.8281 10.8786 11.2967 10.7075 10.7143C10.5365 10.1319 10.5114 9.51639 10.6343 8.92198C10.7573 8.32756 11.0246 7.77251 11.4126 7.30574C11.8006 6.83897 12.2975 6.4748 12.8595 6.24534C13.4214 6.01587 14.0312 5.92815 14.635 5.98991C15.2389 6.05166 15.8183 6.26099 16.3222 6.59945C16.826 6.93791 17.2389 7.39511 17.5244 7.93077C17.81 8.46642 17.9594 9.06408 17.9594 9.67108ZM14.2585 13.372C13.6907 13.372 13.1535 13.2451 12.6724 13.0156V15.2224L13.9868 14.4336C14.0689 14.3844 14.1628 14.3584 14.2585 14.3584C14.3542 14.3584 14.4482 14.3844 14.5303 14.4336L15.8446 15.2224V13.0156C15.349 13.251 14.8072 13.3727 14.2585 13.372ZM14.2585 12.3146C14.9596 12.3146 15.632 12.0361 16.1278 11.5403C16.6235 11.0446 16.902 10.3722 16.902 9.67108C16.902 8.96997 16.6235 8.29759 16.1278 7.80183C15.632 7.30608 14.9596 7.02757 14.2585 7.02757C13.5574 7.02757 12.885 7.30608 12.3893 7.80183C11.8935 8.29759 11.615 8.96997 11.615 9.67108C11.615 10.3722 11.8935 11.0446 12.3893 11.5403C12.885 12.0361 13.5574 12.3146 14.2585 12.3146Z" fill="black" fill-opacity="0.69"/>
<path d="M3.68457 4.38417C3.68457 4.24395 3.74027 4.10947 3.83942 4.01032C3.93857 3.91117 4.07305 3.85547 4.21327 3.85547H13.7299C13.8701 3.85547 14.0046 3.91117 14.1038 4.01032C14.2029 4.10947 14.2586 4.24395 14.2586 4.38417C14.2586 4.52439 14.2029 4.65887 14.1038 4.75802C14.0046 4.85717 13.8701 4.91287 13.7299 4.91287H4.21327C4.07305 4.91287 3.93857 4.85717 3.83942 4.75802C3.74027 4.65887 3.68457 4.52439 3.68457 4.38417Z" fill="black" fill-opacity="0.69"/>
<path d="M4.21327 9.14258C4.07305 9.14258 3.93857 9.19828 3.83942 9.29743C3.74027 9.39658 3.68457 9.53106 3.68457 9.67128C3.68457 9.8115 3.74027 9.94598 3.83942 10.0451C3.93857 10.1443 4.07305 10.2 4.21327 10.2H8.44289C8.58311 10.2 8.71758 10.1443 8.81673 10.0451C8.91588 9.94598 8.97159 9.8115 8.97159 9.67128C8.97159 9.53106 8.91588 9.39658 8.81673 9.29743C8.71758 9.19828 8.58311 9.14258 8.44289 9.14258H4.21327Z" fill="black" fill-opacity="0.69"/>
</svg>
