<svg width="33" height="28" viewBox="0 0 33 28" fill="none" xmlns="http://www.w3.org/2000/svg">
<path d="M10.7723 9.34961L5.45041 14.5996L2.42985 11.651L0.847656 13.2332L5.45041 17.8359L12.3545 10.9318L10.7723 9.34961Z" fill="#F08438"/>
<path d="M10.7723 0L5.45041 5.25001L2.42985 2.30138L0.847656 3.88357L5.45041 8.48632L12.3545 1.5822L10.7723 0Z" fill="#F08438"/>
<path d="M10.7723 18.6992L5.45041 23.9492L2.42985 21.0006L0.847656 22.5828L5.45041 27.1855L12.3545 20.2814L10.7723 18.6992Z" fill="#F08438"/>
<path d="M16.5 11.9434H33V15.2434H16.5V11.9434Z" fill="black"/>
<path d="M16.5 1.21875H33V4.51875H16.5V1.21875Z" fill="black"/>
<path d="M16.5 22.668H33V25.968H16.5V22.668Z" fill="black"/>
</svg>
