<svg width="12" height="14" viewBox="0 0 12 14" fill="none" xmlns="http://www.w3.org/2000/svg">
<rect width="12" height="14" fill="#E5E5E5"/>
<g clip-path="url(#clip0_0_1)">
<rect width="1440" height="1024" transform="translate(-305 -650)" fill="white"/>
<rect x="-20.5" y="-138.5" width="526" height="191" rx="6.5" fill="white" stroke="#E2E9F3"/>
<path d="M5.99967 8.33333C7.47034 8.33333 8.66634 7.13733 8.66634 5.66667C8.66634 4.196 7.47034 3 5.99967 3C4.52901 3 3.33301 4.196 3.33301 5.66667C3.33301 7.13733 4.52901 8.33333 5.99967 8.33333ZM5.99967 4.33333C6.73501 4.33333 7.33301 4.93133 7.33301 5.66667C7.33301 6.402 6.73501 7 5.99967 7C5.26434 7 4.66634 6.402 4.66634 5.66667C4.66634 4.93133 5.26434 4.33333 5.99967 4.33333Z" fill="black" stroke="white" stroke-width="0.5"/>
<path d="M5.61372 13.5433C5.72655 13.6239 5.86173 13.6672 6.00038 13.6672C6.13903 13.6672 6.27422 13.6239 6.38705 13.5433C6.58972 13.4 11.3531 9.96065 11.3337 5.66732C11.3337 2.72665 8.94105 0.333984 6.00038 0.333984C3.05972 0.333984 0.667051 2.72665 0.667051 5.66398C0.647718 9.96065 5.41105 13.4 5.61372 13.5433ZM6.00038 1.66732C8.20638 1.66732 10.0004 3.46132 10.0004 5.67065C10.0144 8.62932 7.07505 11.286 6.00038 12.1573C4.92638 11.2853 1.98638 8.62799 2.00038 5.66732C2.00038 3.46132 3.79438 1.66732 6.00038 1.66732Z" fill="black" stroke="white" stroke-width="0.5"/>
</g>
<defs>
<clipPath id="clip0_0_1">
<rect width="1440" height="1024" fill="white" transform="translate(-305 -650)"/>
</clipPath>
</defs>
</svg>
