<svg width="31" height="29" viewBox="0 0 31 29" fill="none" xmlns="http://www.w3.org/2000/svg">
<rect width="31" height="29" fill="none"/>
<g clip-path="url(#clip0_0_1)">
<rect width="1440" height="1024" transform="translate(-298 -208)" fill="none"/>
<rect x="-14.5" y="-14.5" width="159" height="62" rx="5.5" fill="none"  stroke="#F08438"/>
<rect x="3" y="15" width="24" height="12" fill="white"/>
<mask id="mask0_0_1" style="mask-type:alpha" maskUnits="userSpaceOnUse" x="-3" y="-5" width="37" height="37">
<rect x="-3" y="-5" width="37" height="37" rx="3" fill="#E5E5E5"/>
</mask>
<g mask="url(#mask0_0_1)">
<rect x="3" y="7" width="25" height="7" fill="#F08438"/>
<path d="M21.5852 5.62649V5.72649H21.6852H26.5992C27.6145 5.72649 28.4656 6.07101 29.1592 6.76019C29.8514 7.44802 30.1992 8.32689 30.1992 9.40521V14.4238C30.1992 14.8222 30.1017 15.1026 29.9243 15.2838C29.7472 15.4646 29.4739 15.5637 29.0852 15.5637H28.9852V15.6637V25.76C28.9852 26.401 28.7463 26.9669 28.2621 27.4613C27.778 27.9558 27.2249 28.1988 26.5992 28.1988H4.39922C3.77354 28.1988 3.22046 27.9558 2.73629 27.4613C2.25213 26.9669 2.01328 26.401 2.01328 25.76V15.6637V15.5637H1.91328C1.52455 15.5637 1.25124 15.4646 1.07419 15.2838C0.896746 15.1026 0.799219 14.8222 0.799219 14.4238V9.40521C0.799219 8.32689 1.14702 7.44802 1.83924 6.76019C2.5328 6.07101 3.38397 5.72649 4.39922 5.72649H9.31328H9.41328V5.62649V4.32755C9.41328 3.2897 9.7604 2.41971 10.4543 1.71108C11.148 1.00255 11.9989 0.648828 13.0133 0.648828H17.9852C18.9995 0.648828 19.8504 1.00255 20.5442 1.71108C21.238 2.41971 21.5852 3.2897 21.5852 4.32755V5.62649ZM19.1992 5.72649H19.2992V5.62649V4.32755C19.2992 3.94921 19.1747 3.62824 18.9238 3.37195C18.6727 3.11553 18.3574 2.98766 17.9852 2.98766H13.0133C12.641 2.98766 12.3257 3.11553 12.0746 3.37195C11.8237 3.62824 11.6992 3.94921 11.6992 4.32755V5.62649V5.72649H11.7992H19.1992ZM4.29922 25.76V25.86H4.39922H26.5992H26.6992V25.76V15.6637V15.5637H26.5992H19.1992H19.0992V15.6637V19.4424C19.0992 20.1256 18.868 20.7005 18.4051 21.1733C17.9423 21.6459 17.3804 21.8813 16.7133 21.8813H14.2852C13.6181 21.8813 13.0561 21.6459 12.5933 21.1733C12.1304 20.7005 11.8992 20.1256 11.8992 19.4424V15.6637V15.5637H11.7992H4.39922H4.29922V15.6637V25.76ZM14.1852 19.4424V19.5424H14.2852H16.7133H16.8133V19.4424V15.6637V15.5637H16.7133H14.2852H14.1852V15.6637V19.4424ZM27.8133 13.2839H27.9133V13.1839V9.40521C27.9133 8.95844 27.809 8.60474 27.5828 8.36273C27.3554 8.11944 27.0211 8.00628 26.5992 8.00628H4.39922C3.97732 8.00628 3.643 8.11944 3.41561 8.36273C3.18942 8.60474 3.08516 8.95844 3.08516 9.40521V13.1839V13.2839H3.18516H27.8133Z" fill="black" stroke="#FDF2E9" stroke-width="0.2"/>
</g>
</g>
<defs>
<clipPath id="clip0_0_1">
<rect width="1440" height="1024" fill="white" transform="translate(-298 -208)"/>
</clipPath>
</defs>
</svg>
