<svg width="30" height="30" viewBox="0 0 30 30" fill="none" xmlns="http://www.w3.org/2000/svg">
<rect width="30" height="30" fill="#E5E5E5"/>
<g clip-path="url(#clip0_0_1)">
<rect width="1440" height="1024" transform="translate(-667 -210)" fill="white"/>
<rect x="-15.5" y="-16.5" width="159" height="62" rx="5.5" stroke="#E2E9F3"/>
<path d="M18 6H26C27.1046 6 28 6.89543 28 8V13.5" stroke="#F08438" stroke-width="2"/>
<path d="M18.5625 19.6127C17.6223 19.0823 15.8212 17.9315 13.8627 15.9702C11.9037 14.0085 10.7414 12.1916 10.2033 11.2411L13.3626 8.03657L5.3851 0L1.45496 3.90975C-0.0375755 5.40416 -0.424157 7.67809 0.492516 9.5681C1.89121 12.4522 4.47232 16.805 8.82428 21.1633C13.1765 25.5214 17.5232 28.1061 20.4032 29.5068C21.0855 29.8389 21.8179 30 22.5458 30C23.8307 30 25.1008 29.4971 26.0536 28.543L29.9657 24.6119L21.8266 16.4479L18.5625 19.6127ZM24.3986 26.8876C23.6108 27.6756 22.416 27.8815 21.4252 27.3997C18.7065 26.0774 14.6006 23.6348 10.4784 19.5068C6.35625 15.3789 3.91705 11.2672 2.59663 8.54471C2.11506 7.55226 2.32105 6.35513 3.10612 5.56896L5.37457 3.31222L10.0699 8.0423L7.37843 10.7723L7.70322 11.5026C7.75609 11.6213 9.03257 14.4462 12.2085 17.6267C15.3866 20.8092 18.1837 22.0608 18.3011 22.1126L19.0208 22.4294L21.7989 19.7356L26.662 24.6135L24.3986 26.8876Z" fill="#3D3D3D"/>
<path d="M21 1L17 5.76471L21 10" stroke="#F08438" stroke-width="2"/>
</g>
<defs>
<clipPath id="clip0_0_1">
<rect width="1440" height="1024" fill="white" transform="translate(-667 -210)"/>
</clipPath>
</defs>
</svg>
