<svg width="33" height="32" viewBox="0 0 33 32" fill="none" xmlns="http://www.w3.org/2000/svg">
<rect width="33" height="32" fill="#E5E5E5"/>
<g clip-path="url(#clip0_0_1)">
<rect width="1440" height="1024" transform="translate(-850 -208)" fill="white"/>
<rect x="-14.5" y="-14.5" width="159" height="62" rx="5.5" stroke="#E2E9F3"/>
<path d="M31.5104 5.59374L16.8854 0.718744C16.6352 0.635419 16.3648 0.635419 16.1146 0.718744L1.51303 5.58613L1.51151 5.58658L1.48957 5.5939C1.4853 5.59542 1.4815 5.5977 1.47738 5.59923C1.42454 5.61736 1.37303 5.63914 1.32321 5.66443C1.31757 5.66748 1.31163 5.66976 1.306 5.67281C1.25673 5.69912 1.20934 5.7288 1.16416 5.76163C1.15425 5.76879 1.14445 5.77611 1.13476 5.78356C1.09074 5.81683 1.04901 5.85302 1.00984 5.89188C1.00634 5.89569 1.00314 5.89965 0.999633 5.90331C0.963564 5.94089 0.929929 5.98073 0.898934 6.02259C0.892535 6.03112 0.885984 6.03935 0.879891 6.04803C0.847907 6.09324 0.819046 6.14057 0.793512 6.18971C0.789551 6.19733 0.786199 6.20495 0.78239 6.21256C0.758559 6.26076 0.737948 6.31048 0.720691 6.3614C0.719168 6.36613 0.717035 6.3707 0.715512 6.37557C0.698308 6.42967 0.68492 6.4849 0.675445 6.54086C0.673465 6.5526 0.671789 6.56433 0.670113 6.5759C0.661348 6.63354 0.656715 6.69173 0.65625 6.75003V18.9375C0.65625 19.2608 0.784654 19.5708 1.01321 19.7993C1.24177 20.0279 1.55177 20.1563 1.875 20.1563C2.19823 20.1563 2.50823 20.0279 2.73679 19.7993C2.96535 19.5708 3.09375 19.2608 3.09375 18.9375V8.44105L8.21021 10.1465C6.85386 12.3367 6.41985 14.9748 7.00308 17.4841C7.58632 19.9934 9.13934 22.1696 11.3226 23.5371C8.41534 24.6364 5.93454 26.6344 4.2409 29.2405C4.1513 29.3746 4.08918 29.5251 4.05815 29.6833C4.02712 29.8415 4.02778 30.0043 4.06011 30.1622C4.09244 30.3202 4.15579 30.4702 4.24648 30.6034C4.33718 30.7367 4.45342 30.8507 4.58848 30.9388C4.72353 31.0268 4.87472 31.0872 5.03328 31.1164C5.19183 31.1456 5.35461 31.1431 5.51218 31.109C5.66975 31.0748 5.81898 31.0098 5.95123 30.9175C6.08348 30.8253 6.19611 30.7078 6.28261 30.5717C7.38984 28.8707 8.90424 27.473 10.6884 26.5055C12.4726 25.538 14.4701 25.0313 16.4998 25.0313C18.5294 25.0313 20.5269 25.538 22.3111 26.5055C24.0953 27.473 25.6097 28.8707 26.7169 30.5717C26.8039 30.7067 26.9167 30.8232 27.0489 30.9144C27.181 31.0056 27.3299 31.0698 27.487 31.1034C27.644 31.1369 27.8061 31.139 27.964 31.1097C28.1219 31.0803 28.2724 31.0201 28.4069 30.9324C28.5415 30.8447 28.6573 30.7313 28.7479 30.5987C28.8384 30.466 28.9019 30.3168 28.9345 30.1596C28.9672 30.0024 28.9686 29.8403 28.9384 29.6825C28.9082 29.5248 28.8472 29.3746 28.7588 29.2405C27.0652 26.6344 24.5844 24.6365 21.6772 23.5372C23.8606 22.1698 25.4136 19.9935 25.9968 17.4842C26.5801 14.9749 26.146 12.3367 24.7896 10.1465L31.5104 7.90632C31.7532 7.82547 31.9643 7.67028 32.1139 7.46275C32.2635 7.25522 32.344 7.00587 32.344 6.75003C32.344 6.49419 32.2635 6.24484 32.1139 6.03731C31.9643 5.82978 31.7532 5.6746 31.5104 5.59374ZM23.8125 15.2813C23.8128 16.4373 23.539 17.577 23.0136 18.6067C22.4881 19.6365 21.726 20.527 20.7898 21.2052C19.8536 21.8833 18.7699 22.3299 17.6277 22.5082C16.4855 22.6865 15.3173 22.5914 14.2189 22.2308C13.1205 21.8701 12.1233 21.2542 11.3091 20.4336C10.4948 19.6129 9.88676 18.6109 9.53475 17.5098C9.18273 16.4086 9.09681 15.2397 9.28403 14.0989C9.47124 12.9581 9.92627 11.878 10.6118 10.9471L16.1146 12.7813C16.3648 12.8646 16.6352 12.8646 16.8854 12.7813L22.3882 10.9471C23.3144 12.2023 23.8137 13.7214 23.8125 15.2813ZM22.396 8.37508C22.393 8.37615 22.3899 8.37691 22.3869 8.37813L16.5 10.3403L10.613 8.37813C10.6099 8.37691 10.6069 8.376 10.6038 8.37508L5.72914 6.75003L16.5 3.15975L27.271 6.75003L22.396 8.37508Z" fill="black"/>
<path d="M16 3L5 7L16.5 10.5L28 7L16 3Z" fill="#F08438"/>
</g>
<defs>
<clipPath id="clip0_0_1">
<rect width="1440" height="1024" fill="white" transform="translate(-850 -208)"/>
</clipPath>
</defs>
</svg>
